<svg width="90" height="88" viewBox="0 0 90 88" fill="none" xmlns="http://www.w3.org/2000/svg">
<path d="M30 41.4474H7.9125C8.60944 35.7476 10.2667 30.289 12.7785 25.4203C15.2902 20.5515 18.6012 16.3796 22.5 13.1711L29.2125 7.64474L25.0875 0L18.375 5.52632C12.7248 10.1504 8.09141 16.4157 4.886 23.7665C1.68059 31.1172 0.00227658 39.326 0 47.6645V78.2895C0 80.7323 0.790176 83.075 2.1967 84.8023C3.60322 86.5296 5.51088 87.5 7.5 87.5H30C31.9891 87.5 33.8968 86.5296 35.3033 84.8023C36.7098 83.075 37.5 80.7323 37.5 78.2895V50.6579C37.5 48.2151 36.7098 45.8724 35.3033 44.1451C33.8968 42.4178 31.9891 41.4474 30 41.4474ZM82.5 41.4474H60.4125C61.1094 35.7476 62.7667 30.289 65.2785 25.4203C67.7902 20.5515 71.1012 16.3796 75 13.1711L81.7125 7.64474L77.625 0L70.875 5.52632C65.2248 10.1504 60.5914 16.4157 57.386 23.7665C54.1806 31.1172 52.5023 39.326 52.5 47.6645V78.2895C52.5 80.7323 53.2902 83.075 54.6967 84.8023C56.1032 86.5296 58.0109 87.5 60 87.5H82.5C84.4891 87.5 86.3968 86.5296 87.8033 84.8023C89.2098 83.075 90 80.7323 90 78.2895V50.6579C90 48.2151 89.2098 45.8724 87.8033 44.1451C86.3968 42.4178 84.4891 41.4474 82.5 41.4474Z" fill="#B7B6B6"/>
</svg>
